<svg width="16" height="11" viewBox="0 0 16 11" fill="none" xmlns="http://www.w3.org/2000/svg">
<path d="M5.75716 9.4975C5.16566 9.4974 4.60803 9.38982 4.08427 9.17476C3.56051 8.9597 3.10293 8.66761 2.71151 8.2985C2.31978 7.92909 2.00989 7.49743 1.78183 7.00352C1.55378 6.50962 1.43987 5.98392 1.44009 5.42643C1.44004 5.09477 1.47995 4.77247 1.55983 4.45951C1.63971 4.14656 1.75556 3.85261 1.90739 3.57766C2.05921 3.30271 2.24094 3.04661 2.45256 2.80936C2.66418 2.57211 2.90202 2.35913 3.16609 2.17043L6.42787 5.24635L5.75655 5.8794L3.16631 3.43676C2.92655 3.70808 2.73876 4.01152 2.60293 4.34707C2.4671 4.68263 2.39922 5.04247 2.39929 5.42659C2.39944 6.30096 2.72729 7.04725 3.38284 7.66545C4.0384 8.28364 4.82978 8.59282 5.75701 8.59297C6.68423 8.59313 7.47551 8.28421 8.13086 7.66623C8.7862 7.04825 9.1138 6.30207 9.11365 5.4277C9.11351 4.62116 8.83955 3.92584 8.29175 3.34173C7.74395 2.75762 7.05854 2.41258 6.23554 2.30662L6.23568 3.16591L5.27649 3.16576L5.27618 1.35671L5.75578 1.35679C6.34728 1.35689 6.90491 1.46447 7.42867 1.67953C7.95243 1.89459 8.41001 2.18667 8.80143 2.55578C9.19316 2.9252 9.50305 3.35686 9.73111 3.85076C9.95916 4.34467 10.0731 4.87037 10.0728 5.42785C10.0729 5.98564 9.95905 6.51145 9.73116 7.00529C9.50328 7.49912 9.19369 7.93052 8.8024 8.29951C8.41079 8.66879 7.95314 8.96087 7.42946 9.17576C6.90578 9.39065 6.34834 9.49789 5.75716 9.4975ZM5.75693 8.14071C5.62104 8.14069 5.50705 8.09725 5.41495 8.0104C5.32286 7.92355 5.27696 7.81621 5.27725 7.68837C5.27723 7.56023 5.32326 7.45275 5.41532 7.36593C5.50739 7.27911 5.62121 7.23586 5.75678 7.23619C5.89266 7.23621 6.00665 7.27965 6.09875 7.3665C6.19085 7.45335 6.23675 7.56069 6.23645 7.68853C6.23647 7.81667 6.19045 7.92415 6.09838 8.01097C6.00631 8.09779 5.8925 8.14104 5.75693 8.14071ZM8.15453 5.8798C8.01865 5.87978 7.90466 5.83634 7.81256 5.74949C7.72046 5.66264 7.67456 5.5553 7.67486 5.42746C7.67484 5.29932 7.72086 5.19184 7.81293 5.10502C7.905 5.0182 8.01881 4.97495 8.15438 4.97528C8.29027 4.9753 8.40426 5.01873 8.49635 5.10558C8.58845 5.19243 8.63435 5.29978 8.63405 5.42762C8.63407 5.55576 8.58805 5.66324 8.49598 5.75006C8.40392 5.83688 8.2901 5.88012 8.15453 5.8798ZM3.35856 5.87901C3.22267 5.87899 3.10868 5.83555 3.01658 5.7487C2.92449 5.66185 2.87859 5.55451 2.87888 5.42667C2.87886 5.29853 2.92489 5.19105 3.01695 5.10423C3.10902 5.01741 3.22284 4.97416 3.35841 4.97449C3.49429 4.97451 3.60828 5.01794 3.70038 5.10479C3.79248 5.19164 3.83838 5.29899 3.83808 5.42683C3.8381 5.55497 3.79208 5.66245 3.70001 5.74927C3.60794 5.83608 3.49412 5.87933 3.35856 5.87901Z" fill="#223484"/>
</svg>
