<svg width="202" height="42" viewBox="0 0 202 42" fill="none" xmlns="http://www.w3.org/2000/svg">
<rect width="190" height="42" rx="2" fill="#223484"/>
<path d="M181.124 9.73205C181.124 8.96225 181.958 8.48113 182.624 8.86603L200.624 19.2583C201.291 19.6432 201.291 20.6055 200.624 20.9904L182.624 31.3827C181.958 31.7676 181.124 31.2865 181.124 30.5167L181.124 9.73205Z" fill="#223484"/>
<path d="M39.1155 21.281C39.9128 21.7403 40.3115 22.4337 40.3115 23.361C40.3115 24.1323 40.0385 24.765 39.4925 25.259C38.9465 25.753 38.2748 26 37.4775 26H33.6165V16.9H37.2045C37.9845 16.9 38.6388 17.1427 39.1675 17.628C39.7048 18.1047 39.9735 18.7157 39.9735 19.461C39.9735 20.215 39.6875 20.8217 39.1155 21.281ZM37.2045 18.577H35.4105V20.579H37.2045C37.4818 20.579 37.7115 20.4837 37.8935 20.293C38.0842 20.1023 38.1795 19.864 38.1795 19.578C38.1795 19.292 38.0885 19.0537 37.9065 18.863C37.7245 18.6723 37.4905 18.577 37.2045 18.577ZM37.4775 24.323C37.7808 24.323 38.0322 24.2233 38.2315 24.024C38.4308 23.816 38.5305 23.556 38.5305 23.244C38.5305 22.9407 38.4308 22.6893 38.2315 22.49C38.0322 22.282 37.7808 22.178 37.4775 22.178H35.4105V24.323H37.4775ZM48.3376 26L47.7916 24.362H44.1646L43.6186 26H41.6816L44.8666 16.9H47.0896L50.2876 26H48.3376ZM44.7366 22.685H47.2326L45.9846 18.967L44.7366 22.685ZM55.075 26.182C54.1737 26.182 53.4154 25.9827 52.8 25.584C52.1847 25.1767 51.7514 24.6263 51.5 23.933L53.034 23.036C53.3894 23.9633 54.087 24.427 55.127 24.427C55.6297 24.427 55.998 24.336 56.232 24.154C56.466 23.972 56.583 23.7423 56.583 23.465C56.583 23.1443 56.44 22.8973 56.154 22.724C55.868 22.542 55.3567 22.347 54.62 22.139C54.2127 22.0177 53.866 21.8963 53.58 21.775C53.3027 21.6537 53.021 21.4933 52.735 21.294C52.4577 21.086 52.2454 20.826 52.098 20.514C51.9507 20.202 51.877 19.838 51.877 19.422C51.877 18.5987 52.1674 17.9443 52.748 17.459C53.3374 16.965 54.0437 16.718 54.867 16.718C55.6037 16.718 56.2494 16.9 56.804 17.264C57.3674 17.6193 57.805 18.1177 58.117 18.759L56.609 19.63C56.245 18.85 55.6644 18.46 54.867 18.46C54.4944 18.46 54.1997 18.5467 53.983 18.72C53.775 18.8847 53.671 19.1013 53.671 19.37C53.671 19.656 53.788 19.89 54.022 20.072C54.2647 20.2453 54.724 20.436 55.4 20.644C55.6774 20.7307 55.8854 20.8 56.024 20.852C56.1714 20.8953 56.3664 20.969 56.609 21.073C56.8604 21.1683 57.051 21.2593 57.181 21.346C57.3197 21.4327 57.4757 21.5497 57.649 21.697C57.8224 21.8443 57.9524 21.996 58.039 22.152C58.1344 22.308 58.2124 22.4987 58.273 22.724C58.3424 22.9407 58.377 23.179 58.377 23.439C58.377 24.2797 58.0694 24.947 57.454 25.441C56.8474 25.935 56.0544 26.182 55.075 26.182ZM62.2777 24.284H66.1127V26H60.4837V16.9H66.0477V18.616H62.2777V20.553H65.7227V22.243H62.2777V24.284ZM74.4212 24.284H77.8922V26H72.6272V16.9H74.4212V24.284ZM79.9114 16.9H81.7054V26H79.9114V16.9ZM89.6549 16.9H91.4489V26H90.0839L86.1839 20.436V26H84.3899V16.9H85.7549L89.6549 22.451V16.9ZM95.931 24.284H99.766V26H94.137V16.9H99.701V18.616H95.931V20.553H99.376V22.243H95.931V24.284Z" fill="white"/>
<g clip-path="url(#clip0_65_363)">
<path d="M19.6484 18.6484L20.3516 19.3516L14.5 25.2031L11.6484 22.3516L12.3516 21.6484L14.5 23.7969L19.6484 18.6484ZM16 14C16.7344 14 17.4427 14.0938 18.125 14.2812C18.8073 14.4688 19.4453 14.737 20.0391 15.0859C20.6328 15.4349 21.1719 15.8516 21.6562 16.3359C22.1406 16.8203 22.5573 17.362 22.9062 17.9609C23.2552 18.5599 23.5234 19.1979 23.7109 19.875C23.8984 20.5521 23.9948 21.2604 24 22C24 22.7344 23.9062 23.4427 23.7188 24.125C23.5312 24.8073 23.263 25.4453 22.9141 26.0391C22.5651 26.6328 22.1484 27.1719 21.6641 27.6562C21.1797 28.1406 20.638 28.5573 20.0391 28.9062C19.4401 29.2552 18.8021 29.5234 18.125 29.7109C17.4479 29.8984 16.7396 29.9948 16 30C15.2656 30 14.5573 29.9062 13.875 29.7188C13.1927 29.5312 12.5547 29.263 11.9609 28.9141C11.3672 28.5651 10.8281 28.1484 10.3438 27.6641C9.85938 27.1797 9.44271 26.638 9.09375 26.0391C8.74479 25.4401 8.47656 24.8047 8.28906 24.1328C8.10156 23.4609 8.00521 22.75 8 22C8 21.2656 8.09375 20.5573 8.28125 19.875C8.46875 19.1927 8.73698 18.5547 9.08594 17.9609C9.4349 17.3672 9.85156 16.8281 10.3359 16.3438C10.8203 15.8594 11.362 15.4427 11.9609 15.0938C12.5599 14.7448 13.1953 14.4766 13.8672 14.2891C14.5391 14.1016 15.25 14.0052 16 14ZM16 29C16.6406 29 17.2578 28.9167 17.8516 28.75C18.4453 28.5833 19.0026 28.349 19.5234 28.0469C20.0443 27.7448 20.5182 27.3776 20.9453 26.9453C21.3724 26.513 21.737 26.0417 22.0391 25.5312C22.3411 25.0208 22.5781 24.4635 22.75 23.8594C22.9219 23.2552 23.0052 22.6354 23 22C23 21.3594 22.9167 20.7422 22.75 20.1484C22.5833 19.5547 22.349 18.9974 22.0469 18.4766C21.7448 17.9557 21.3776 17.4818 20.9453 17.0547C20.513 16.6276 20.0417 16.263 19.5312 15.9609C19.0208 15.6589 18.4635 15.4219 17.8594 15.25C17.2552 15.0781 16.6354 14.9948 16 15C15.3594 15 14.7422 15.0833 14.1484 15.25C13.5547 15.4167 12.9974 15.651 12.4766 15.9531C11.9557 16.2552 11.4818 16.6224 11.0547 17.0547C10.6276 17.487 10.263 17.9583 9.96094 18.4688C9.65885 18.9792 9.42188 19.5365 9.25 20.1406C9.07812 20.7448 8.99479 21.3646 9 22C9 22.6406 9.08333 23.2578 9.25 23.8516C9.41667 24.4453 9.65104 25.0026 9.95312 25.5234C10.2552 26.0443 10.6224 26.5182 11.0547 26.9453C11.487 27.3724 11.9583 27.737 12.4688 28.0391C12.9792 28.3411 13.5365 28.5781 14.1406 28.75C14.7448 28.9219 15.3646 29.0052 16 29Z" fill="white"/>
</g>
<defs>
<clipPath id="clip0_65_363">
<rect width="16" height="16" fill="white" transform="translate(8 14)"/>
</clipPath>
</defs>
</svg>
