<svg width="316" height="69" viewBox="0 0 316 69" fill="none" xmlns="http://www.w3.org/2000/svg">
<path d="M69.6525 0C72.9355 5.75004 76.2185 11.5001 79.5015 17.2059C72.9355 17.2501 66.3252 17.2501 59.7592 17.2943C58.7832 17.2943 57.8515 17.2501 56.8755 17.2501C51.2412 17.2059 45.5625 17.2059 39.9282 17.2059C42.1021 13.4905 44.2759 9.8193 46.4054 6.10389C47.5589 4.11349 48.6237 2.03463 49.6884 0C56.3431 0 62.9978 0 69.6525 0Z" fill="#019DD7"/>
<path d="M49.6885 0C48.5793 2.03463 47.559 4.06926 46.4055 6.10389C44.276 9.8193 42.1021 13.4905 39.9282 17.2059C39.8395 17.2943 39.7064 17.3386 39.5733 17.3386C33.0517 17.2943 26.5301 17.2501 20.0085 17.2501C21.2951 14.8616 22.5816 12.4732 23.9126 10.1289C25.8203 6.72312 27.7723 3.36156 29.7244 0C36.3791 0 43.0338 0 49.6885 0Z" fill="#02BAF0"/>
<path d="M0 50.8648C0.443647 50.2898 0.931658 49.759 1.28658 49.184C3.99282 44.5398 6.69907 39.8955 9.40531 35.207C9.44968 35.0743 9.62714 35.0301 9.71586 34.9416C10.0708 35.1628 10.5144 35.2955 10.6919 35.6051C11.6679 37.1532 12.5996 38.7013 13.5312 40.2494C15.3945 43.4782 17.2135 46.7071 19.0768 49.8917C19.343 50.2898 19.9197 50.511 20.3634 50.8206C20.0085 51.5725 19.6536 52.3687 19.2543 53.1206C16.7698 57.4995 14.2854 61.8783 11.801 66.213C11.4017 66.9649 10.9137 67.6284 10.2926 68.5572C8.56238 65.638 6.92089 62.8514 5.32376 60.1091C3.81536 57.5437 2.30696 54.9341 0.798564 52.3687C0.621105 52.0591 0.266188 51.8821 0 51.661C0 51.4398 0 51.1744 0 50.8648Z" fill="#CDEAF2"/>
<path d="M314.59 21.7169C314.279 22.115 313.969 22.5131 313.569 23.0439C313.215 22.6458 312.904 22.2919 312.505 21.8496C312.372 22.5573 312.238 23.1766 312.017 24.1496C310.863 22.8227 311.706 21.4958 311.129 20.2573C310.774 20.3015 310.286 20.3015 309.754 20.39C309.71 21.5842 309.621 22.69 309.577 23.84C308.379 22.9554 308.911 21.8054 308.645 20.6996C308.334 20.4785 307.891 20.2131 307.447 19.9477C307.491 19.8592 307.536 19.7265 307.536 19.6381C309.089 19.6381 310.597 19.6381 312.327 19.6381C312.638 20.0804 313.037 20.6554 313.436 21.2304C314.412 21.0092 314.102 19.2842 315.477 19.5938C315.61 20.7439 315.743 21.9381 315.876 23.0881C315.876 23.3977 315.876 23.6631 315.876 23.9727C315.566 23.8843 315.211 23.84 314.767 23.7516C314.812 23.1323 314.812 22.5131 314.856 21.9381C314.856 21.8054 314.856 21.6727 314.812 21.54C314.767 21.4958 314.679 21.6285 314.59 21.7169Z" fill="#273887"/>
<path d="M49.6883 69C49.6883 68.8673 49.6883 68.7346 49.6883 68.6019C49.8214 68.5577 49.9989 68.5134 50.132 68.4692C56.6536 68.5134 63.1308 68.5134 69.6524 68.5577C69.6524 68.6904 69.6524 68.8231 69.6524 69C62.9977 69 56.343 69 49.6883 69Z" fill="#CDEAF2"/>
<path d="M315.876 23.0005C315.743 21.8505 315.61 20.6562 315.477 19.5062C315.61 19.3293 315.743 19.1966 315.876 19.0197C315.876 20.3466 315.876 21.6735 315.876 23.0005Z" fill="#0D6EAF"/>
<path d="M108.161 47.4597C108.161 53.2097 108.161 58.4732 108.161 63.9136C105.721 63.9136 103.37 63.9136 100.885 63.9136C100.841 63.5156 100.708 63.029 100.708 62.5425C100.708 53.254 100.575 43.9654 100.752 34.7211C100.885 27.423 104.612 20.4345 112.997 18.3557C120.361 16.5422 127.016 17.8249 132.029 23.9288C138.994 32.4211 136.377 48.3885 123.068 51.4847C118.187 52.6347 113.529 51.927 109.536 48.6097C109.226 48.3443 108.871 48.0789 108.161 47.4597ZM127.948 34.8538C127.903 34.1904 127.859 33.5269 127.77 32.8634C127.193 28.3076 123.866 25.0788 118.853 24.5038C115.259 24.1057 110.734 25.9192 108.915 30.3423C108.072 32.3769 107.984 34.5 108.205 36.6231C109.004 43.3462 116.147 47.2385 122.269 44.3193C126.262 42.4173 127.815 39.0116 127.948 34.8538Z" fill="#223484"/>
<path d="M227.147 51.0426C225.195 51.2638 223.465 51.5734 221.69 51.6176C217.209 51.7061 212.684 51.883 208.203 51.6619C206.03 51.5734 203.856 50.9099 201.815 50.0695C197.423 48.3003 196.047 45.0714 196.314 40.5156C196.713 33.9694 200.661 31.6694 207.006 31.006C210.643 30.6079 214.37 30.9175 218.052 30.9175C218.54 30.9175 219.073 30.9175 219.561 30.9175C219.738 27.4232 218.185 25.079 214.947 24.3271C210.865 23.3982 206.739 23.354 202.791 25.1232C202.259 25.3444 201.726 25.6098 201.194 25.8309C198.354 23.6636 198.576 20.479 201.771 19.0193C203.235 18.3559 204.876 17.9578 206.429 17.8251C210.2 17.4713 213.926 17.5597 217.653 18.577C223.775 20.2136 227.147 24.4598 227.191 30.6963C227.236 37.0214 227.191 43.3464 227.191 49.7157C227.236 50.0695 227.191 50.4234 227.147 51.0426ZM219.827 36.6233C218.407 36.4464 217.121 36.181 215.79 36.0925C212.862 35.9156 209.889 35.7387 207.05 36.7118C204.876 37.4637 203.767 39.1887 203.811 41.4445C203.856 43.6118 204.92 45.2041 207.139 45.8234C211.309 46.9291 215.524 46.6638 219.783 45.9118C219.827 42.8157 219.827 39.8964 219.827 36.6233Z" fill="#223484"/>
<path d="M176.216 34.8534C176.527 43.6996 169.34 51.9265 158.471 52.015C148.311 52.1035 140.503 44.4957 140.592 34.7207C140.636 24.9014 148.267 17.6917 158.471 17.6917C168.941 17.6475 176.571 25.7418 176.216 34.8534ZM158.382 24.2821C152.614 24.2821 148.355 28.7937 148.355 34.8976C148.355 40.7803 152.703 45.3803 158.293 45.3803C164.194 45.3803 168.453 41.0457 168.408 34.8534C168.408 27.511 163.306 24.2379 158.382 24.2821Z" fill="#223484"/>
<path d="M302.611 26.5823C298.441 23.9285 293.783 23.1323 288.903 23.4862C287.794 23.5746 286.685 23.7958 285.664 24.1939C284.023 24.7689 283.268 25.8747 283.313 27.3343C283.357 28.8824 284.289 29.8554 285.664 30.1651C288.016 30.6958 290.411 31.0497 292.807 31.4478C295.069 31.8458 297.288 32.2439 299.55 32.6862C300.127 32.8189 300.659 33.0401 301.236 33.2612C307.314 35.9593 308.645 43.5671 303.898 48.2113C302.035 50.0248 299.772 50.9979 297.243 51.4402C289.968 52.7671 283.002 51.7498 276.348 48.6094C276.037 48.4767 275.726 48.2113 275.283 47.9017C276.17 46.2652 277.057 44.6728 277.856 43.2132C280.917 44.0536 283.801 45.0709 286.818 45.6902C289.79 46.3094 292.851 46.3536 295.824 45.5132C296.8 45.2036 297.909 44.5844 298.486 43.7882C299.728 41.9748 298.619 39.6747 296.179 39.0555C294.138 38.5247 291.964 38.3036 289.834 38.0382C286.995 37.6401 284.111 37.4632 281.405 36.2689C278.388 34.942 276.303 32.7747 275.904 29.3689C275.505 25.565 276.614 22.4246 279.941 20.2131C282.071 18.7977 284.511 18.1342 286.995 17.8688C291.121 17.4708 295.247 17.5592 299.328 18.6208C300.393 18.8861 301.458 19.2842 302.39 19.815C305.673 21.6285 305.761 24.2381 302.611 26.5823Z" fill="#223484"/>
<path d="M190.058 51.0432C187.53 51.0432 185.267 51.0432 182.827 51.0432C182.783 50.3797 182.694 49.7162 182.694 49.097C182.694 35.2969 182.694 21.5411 182.694 7.74096C182.694 4.33517 183.847 3.22939 187.263 3.49478C188.195 3.53901 189.127 3.84862 190.058 4.02555C190.058 19.7718 190.058 35.2969 190.058 51.0432Z" fill="#273887"/>
<path d="M89.2173 34.5002C88.685 35.5175 88.197 36.579 87.6202 37.5963C84.7365 42.506 81.8528 47.3714 78.9691 52.2811C78.3036 52.1041 77.6382 51.8387 76.9727 51.7945C71.2496 51.7503 65.571 51.7503 59.8479 51.7503C59.8479 51.5734 59.8479 51.3964 59.8036 51.2195C60.0697 50.6887 60.2916 50.158 60.5578 49.6714C63.4858 44.6291 66.3695 39.5867 69.2976 34.5002C75.9967 34.5002 82.607 34.5002 89.2173 34.5002Z" fill="#0D6EAF"/>
<path d="M89.2173 34.5002C82.607 34.5002 75.9967 34.5002 69.342 34.5002C68.9427 33.6598 68.5434 32.7752 68.0997 31.9791C65.3491 27.0694 62.5542 22.204 59.7592 17.3386C66.3252 17.2943 72.9355 17.2943 79.5015 17.2501C82.6957 22.7348 85.9343 28.2194 89.1286 33.7041C89.2617 33.881 89.173 34.2348 89.2173 34.5002Z" fill="#028DC0"/>
<path d="M242.231 51.0433C239.702 51.0433 237.351 51.0433 234.867 51.0433C234.822 50.5126 234.733 49.9376 234.689 49.4068C234.689 43.3029 234.689 37.1548 234.689 31.0509C234.689 29.9451 234.689 28.8393 234.911 27.7336C235.931 21.9835 239.48 18.6662 245.736 17.8258C248.664 17.4277 251.636 17.5162 254.476 18.5335C258.158 19.8162 258.868 22.6912 256.206 25.6105C254.698 25.2566 253.234 24.6816 251.725 24.5489C250.084 24.4162 248.309 24.4162 246.712 24.8143C243.651 25.6547 242.586 28.1317 242.275 31.0509C242.142 32.2894 242.231 33.5721 242.231 34.8105C242.231 39.4548 242.231 44.0991 242.231 48.7433C242.231 49.4953 242.231 50.203 242.231 51.0433Z" fill="#223484"/>
<path d="M59.8924 51.7503C65.6155 51.7503 71.3385 51.7503 77.0172 51.7945C77.6826 51.7945 78.3481 52.1042 79.0136 52.2811C76.263 57.1023 73.5124 61.9234 70.8061 66.7446C70.4512 67.3639 70.0519 67.9831 69.697 68.6466C63.1754 68.6023 56.6982 68.6023 50.1765 68.5581C50.3096 68.16 50.3984 67.7177 50.6202 67.3196C52.2617 64.4888 53.8588 61.6138 55.5447 58.783C56.92 56.3946 58.4284 54.0946 59.8924 51.7503Z" fill="#0167B2"/>
<path d="M269.294 19.2412C269.294 29.9009 269.294 40.3836 269.294 51.0433C266.898 51.0433 264.547 51.0433 262.018 51.0433C261.973 50.2472 261.929 49.5395 261.929 48.8318C261.929 40.3394 262.062 31.8913 261.885 23.3989C261.796 18.5777 264.591 18.2239 267.83 18.7989C268.229 18.8431 268.672 19.02 269.294 19.2412Z" fill="#273887"/>
<path d="M270.181 8.53576C270.181 11.1896 268.229 13.18 265.656 13.1358C263.127 13.0916 261.264 11.1896 261.219 8.62422C261.219 5.97035 263.171 3.97996 265.744 4.02419C268.273 4.06842 270.181 6.01459 270.181 8.53576Z" fill="#273887"/>
<path d="M314.59 21.7167C314.679 21.6282 314.723 21.5398 314.812 21.4513C314.812 21.584 314.812 21.7167 314.856 21.8494C314.767 21.8052 314.679 21.7609 314.59 21.7167Z" fill="#0D6EAF"/>
<path d="M59.8923 51.7503C58.4283 54.0946 56.9199 56.3946 55.5002 58.783C53.8144 61.6138 52.2173 64.4446 50.5758 67.3196C50.3539 67.6735 50.2652 68.1158 50.1321 68.5581C49.999 68.6023 49.8216 68.6466 49.6885 68.6908C46.3168 62.9408 42.9894 57.1465 39.6177 51.3965C39.8395 51.3965 40.1057 51.3522 40.3275 51.3522C46.716 51.3522 53.1489 51.3522 59.5374 51.3522C59.6262 51.308 59.7149 51.308 59.848 51.2638C59.848 51.3965 59.848 51.5734 59.8923 51.7503Z" fill="#134A9E"/>
<path d="M20.4078 50.8654C19.9642 50.5558 19.3431 50.3788 19.1213 49.9365C17.2136 46.7519 15.439 43.523 13.5757 40.2941C12.6884 38.7018 11.7124 37.1537 10.7363 35.6499C10.5589 35.3403 10.0709 35.2076 9.76032 34.9864C9.93778 34.6768 10.0709 34.4114 10.2483 34.1018C16.7699 34.1018 23.2472 34.1018 29.7688 34.1018C29.9462 34.146 30.1237 34.146 30.3012 34.1903H30.2568C30.2124 34.4556 30.1681 34.721 30.1237 34.9864C29.5026 35.7383 28.7484 36.4018 28.2604 37.2422C25.5541 41.7095 22.981 46.3096 20.4078 50.8654Z" fill="#9AD9F0"/>
<path d="M30.0793 34.9429C30.1237 34.6775 30.168 34.4121 30.2124 34.1467C31.011 34.1909 31.8095 34.2794 32.6081 34.2794C38.1537 34.3236 43.7436 34.3236 49.2892 34.3679C49.0674 34.9871 48.9343 35.6506 48.6237 36.1813C46.7604 39.4102 44.8527 42.5506 43.0338 45.8237C42.0578 47.593 40.5494 49.0968 40.3719 51.2641C40.1501 51.2641 39.8839 51.3084 39.6621 51.3084C36.4235 45.8679 33.2292 40.3833 30.0793 34.9429Z" fill="#1B1F64"/>
<path d="M29.7244 34.0576C23.2028 34.0576 16.7255 34.0576 10.2039 34.0576C11.9341 30.9172 13.6644 27.821 15.439 24.6806C16.3706 23.0441 17.3023 21.3633 18.2783 19.7267C18.7219 18.9748 19.2987 18.3113 19.8311 17.6036C20.2303 18.0017 20.674 18.3556 20.9845 18.8421C21.9162 20.346 22.8035 21.8498 23.6908 23.3537C25.6872 26.9364 27.6836 30.5191 29.7244 34.0576Z" fill="#80D0EE"/>
<path d="M29.7244 34.0579C27.728 30.5194 25.6872 26.9367 23.6464 23.3982C22.7591 21.8944 21.8718 20.3463 20.9402 18.8867C20.6296 18.4444 20.186 18.0905 19.7867 17.6482C19.8311 17.5155 19.9198 17.3828 19.9642 17.2501C26.4858 17.2943 33.0074 17.2943 39.5733 17.3386C38.0649 20.0809 36.5122 22.8232 35.0038 25.5213C33.4066 28.3963 31.8539 31.2714 30.2568 34.1021C30.0793 34.1021 29.9018 34.1021 29.7244 34.0579Z" fill="#53C5ED"/>
<path d="M49.2892 34.4123C49.6441 34.722 50.1321 34.9431 50.3539 35.297C53.4594 40.6047 56.5206 45.9566 59.5818 51.2644C53.1932 51.2644 46.7604 51.2644 40.3718 51.2644C40.5493 49.097 42.0577 47.5932 43.0337 45.8239C44.8527 42.5951 46.7604 39.4104 48.6237 36.1816C48.8899 35.6508 49.0673 34.9873 49.2892 34.4123Z" fill="#223484"/>
</svg>
