<svg width="12" height="12" viewBox="0 0 12 12" fill="none" xmlns="http://www.w3.org/2000/svg">
<path d="M6.46807 5.38678L5.53217 5.38545L5.53083 6.32135L6.46673 6.32268L6.46807 5.38678Z" fill="white"/>
<path d="M10.5971 0.948052L10.0352 0.947252L10.0365 0.0113498L9.09991 0.0100174L9.09858 0.94592L2.91713 0.937126L2.91847 0.00122374L1.98188 -0.000108639L1.98055 0.935794L1.4186 0.934994C0.643955 0.933892 0.0128311 1.56276 0.0117282 2.33685L-5.17292e-06 10.5728C-0.00110798 11.3469 0.628221 11.9775 1.40287 11.9786L4.51701 11.9831L4.58725 11.9832L6.2207 11.9855C5.8973 11.718 5.61574 11.4018 5.387 11.0484L4.58858 11.0473L4.51834 11.0472L1.4042 11.0427C1.14599 11.0424 0.93621 10.8322 0.936577 10.5741L0.945377 4.39717L11.0605 4.41156L11.0591 5.34746L11.0591 5.39425L11.0591 5.39657C11.412 5.62616 11.7277 5.90843 11.9945 6.23233L11.9957 5.39559L11.9957 5.34879L12 2.3539C12.0011 1.57982 11.3718 0.949154 10.5971 0.948052ZM11.0618 3.47565L0.946711 3.46126L0.948311 2.33818C0.948678 2.08015 1.15905 1.87053 1.41727 1.8709L1.97922 1.8717L1.97788 2.8076L2.91447 2.80893L2.9158 1.87303L9.09724 1.88182L9.09591 2.81772L10.0325 2.81906L10.0338 1.88315L10.5958 1.88395C10.854 1.88432 11.0638 2.09454 11.0634 2.35257L11.0618 3.47565Z" fill="white"/>
<path d="M8.83285 5.67109C7.08989 5.66861 5.66986 7.08358 5.66738 8.82527C5.6649 10.567 7.08089 11.986 8.82385 11.9884C10.5668 11.9909 11.9868 10.576 11.9893 8.83426C11.9918 7.09257 10.5758 5.67357 8.83285 5.67109ZM8.82518 11.0525C7.59866 11.0508 6.60222 10.0522 6.60396 8.8266C6.60571 7.60097 7.60499 6.60525 8.83151 6.607C10.058 6.60874 11.0545 7.60729 11.0527 8.83293C11.051 10.0586 10.0517 11.0543 8.82518 11.0525Z" fill="white"/>
<path d="M9.27622 7.26182L8.33963 7.26048L8.33673 9.29607L10.0694 9.29854L10.0707 8.36263L9.27465 8.3615L9.27622 7.26182Z" fill="white"/>
<path d="M4.59534 7.25547L3.65944 7.25414L3.65811 8.19004L4.59401 8.19138L4.59534 7.25547Z" fill="white"/>
<path d="M2.71819 7.25336L1.78229 7.25203L1.78096 8.18793L2.71686 8.18926L2.71819 7.25336Z" fill="white"/>
<path d="M2.72242 5.38044L1.78652 5.37911L1.78518 6.31501L2.72109 6.31634L2.72242 5.38044Z" fill="white"/>
<path d="M2.71819 9.12628L1.78229 9.12495L1.78096 10.0609L2.71686 10.0622L2.71819 9.12628Z" fill="white"/>
<path d="M4.59957 5.38466L3.66367 5.38333L3.66233 6.31924L4.59824 6.32057L4.59957 5.38466Z" fill="white"/>
<path d="M4.59111 9.1284L3.65521 9.12707L3.65388 10.063L4.58978 10.0643L4.59111 9.1284Z" fill="white"/>
</svg>
