<svg width="11" height="11" viewBox="0 0 11 11" fill="none" xmlns="http://www.w3.org/2000/svg">
<g clip-path="url(#clip0_18_482)">
<path d="M3.90189 7.19221L3.46244 8.92417C3.43581 9.03875 3.3781 9.1313 3.28932 9.20181C3.20054 9.27233 3.09401 9.30758 2.96972 9.30758C2.80104 9.30758 2.66343 9.24148 2.5569 9.10927C2.45037 8.97706 2.41929 8.83162 2.46368 8.67297L2.83655 7.19221H1.38502C1.20747 7.19221 1.06542 7.12381 0.958885 6.98702C0.852351 6.85022 0.821279 6.69827 0.865668 6.53115C0.892302 6.40776 0.954447 6.3108 1.0521 6.24029C1.14976 6.16978 1.26073 6.13452 1.38502 6.13452H3.10289L3.63556 4.01915H2.18403C2.00647 4.01915 1.86443 3.95075 1.75789 3.81396C1.65136 3.67716 1.62029 3.52521 1.66468 3.35809C1.69131 3.23469 1.75345 3.13774 1.85111 3.06723C1.94877 2.99672 2.05974 2.96146 2.18403 2.96146H3.90189L4.34135 1.2295C4.36798 1.11491 4.42569 1.02237 4.51447 0.951853C4.60324 0.881341 4.70978 0.846084 4.83407 0.846084C5.00275 0.846084 5.14036 0.91219 5.24689 1.0444C5.35342 1.17661 5.3845 1.32204 5.34011 1.4807L4.96724 2.96146H7.09792L7.53738 1.2295C7.56401 1.11491 7.62172 1.02237 7.71049 0.951853C7.79927 0.881341 7.90581 0.846084 8.0301 0.846084C8.19878 0.846084 8.33638 0.91219 8.44292 1.0444C8.54945 1.17661 8.58052 1.32204 8.53614 1.4807L8.16327 2.96146H9.61479C9.79235 2.96146 9.9344 3.02968 10.0409 3.16612C10.1475 3.30256 10.1785 3.45469 10.1341 3.62251C10.1075 3.74591 10.0454 3.84287 9.94771 3.91338C9.85006 3.98389 9.73909 4.01915 9.61479 4.01915H7.89693L7.36426 6.13452H8.81579C8.99334 6.13452 9.13539 6.20292 9.24192 6.33971C9.34846 6.47651 9.37953 6.62846 9.33514 6.79558C9.30851 6.91897 9.24636 7.01593 9.14871 7.08644C9.05105 7.15695 8.94008 7.19221 8.81579 7.19221H7.09792L6.65847 8.92417C6.63184 9.03875 6.57413 9.1313 6.48535 9.20181C6.39657 9.27233 6.29004 9.30758 6.16575 9.30758C5.99707 9.30758 5.85946 9.24148 5.75293 9.10927C5.64639 8.97706 5.61532 8.83162 5.65971 8.67297L6.03258 7.19221H3.90189ZM4.16823 6.13452H6.29892L6.83159 4.01915H4.7009L4.16823 6.13452Z" fill="#2196F3"/>
</g>
<defs>
<clipPath id="clip0_18_482">
<rect width="10.4252" height="10.4252" fill="white" transform="scale(1.05513)"/>
</clipPath>
</defs>
</svg>
