<svg width="11" height="11" viewBox="0 0 11 11" fill="none" xmlns="http://www.w3.org/2000/svg">
<g clip-path="url(#clip0_18_476)">
<path d="M3.90202 7.19221L3.46257 8.92417C3.43594 9.03875 3.37823 9.1313 3.28945 9.20181C3.20067 9.27233 3.09414 9.30758 2.96985 9.30758C2.80117 9.30758 2.66356 9.24148 2.55703 9.10927C2.45049 8.97706 2.41942 8.83162 2.46381 8.67297L2.83668 7.19221H1.38515C1.20759 7.19221 1.06555 7.12381 0.959014 6.98702C0.85248 6.85022 0.821408 6.69827 0.865797 6.53115C0.89243 6.40776 0.954575 6.3108 1.05223 6.24029C1.14989 6.16978 1.26086 6.13452 1.38515 6.13452H3.10302L3.63569 4.01915H2.18416C2.0066 4.01915 1.86456 3.95075 1.75802 3.81396C1.65149 3.67716 1.62041 3.52521 1.6648 3.35809C1.69144 3.23469 1.75358 3.13774 1.85124 3.06723C1.9489 2.99672 2.05987 2.96146 2.18416 2.96146H3.90202L4.34148 1.2295C4.36811 1.11491 4.42582 1.02237 4.5146 0.951853C4.60337 0.881341 4.70991 0.846084 4.8342 0.846084C5.00288 0.846084 5.14048 0.91219 5.24702 1.0444C5.35355 1.17661 5.38463 1.32204 5.34024 1.4807L4.96737 2.96146H7.09805L7.53751 1.2295C7.56414 1.11491 7.62184 1.02237 7.71062 0.951853C7.7994 0.881341 7.90594 0.846084 8.03023 0.846084C8.19891 0.846084 8.33651 0.91219 8.44305 1.0444C8.54958 1.17661 8.58065 1.32204 8.53626 1.4807L8.16339 2.96146H9.61492C9.79248 2.96146 9.93453 3.02968 10.0411 3.16612C10.1476 3.30256 10.1787 3.45469 10.1343 3.62251C10.1076 3.74591 10.0455 3.84287 9.94784 3.91338C9.85019 3.98389 9.73921 4.01915 9.61492 4.01915H7.89706L7.36439 6.13452H8.81592C8.99347 6.13452 9.13552 6.20292 9.24205 6.33971C9.34859 6.47651 9.37966 6.62846 9.33527 6.79558C9.30864 6.91897 9.24649 7.01593 9.14884 7.08644C9.05118 7.15695 8.94021 7.19221 8.81592 7.19221H7.09805L6.6586 8.92417C6.63196 9.03875 6.57426 9.1313 6.48548 9.20181C6.3967 9.27233 6.29017 9.30758 6.16588 9.30758C5.9972 9.30758 5.85959 9.24148 5.75306 9.10927C5.64652 8.97706 5.61545 8.83162 5.65984 8.67297L6.03271 7.19221H3.90202ZM4.16836 6.13452H6.29904L6.83172 4.01915H4.70103L4.16836 6.13452Z" fill="#2196F3"/>
</g>
<defs>
<clipPath id="clip0_18_476">
<rect width="10.4252" height="10.4252" fill="white" transform="scale(1.05513)"/>
</clipPath>
</defs>
</svg>
