<svg width="10" height="10" viewBox="0 0 10 10" fill="none" xmlns="http://www.w3.org/2000/svg">
<g clip-path="url(#clip0_1_5789)">
<path d="M3.3333 5.8334C3.21525 5.8334 3.11622 5.7934 3.03622 5.7134C2.95622 5.6334 2.91636 5.53451 2.91664 5.41674C2.91664 5.29868 2.95664 5.19965 3.03664 5.11965C3.11664 5.03965 3.21553 4.99979 3.3333 5.00007C3.45136 5.00007 3.55039 5.04007 3.63039 5.12007C3.71039 5.20007 3.75025 5.29896 3.74997 5.41674C3.74997 5.53479 3.70997 5.63382 3.62997 5.71382C3.54997 5.79382 3.45108 5.83368 3.3333 5.8334ZM4.99997 5.8334C4.88192 5.8334 4.78289 5.7934 4.70289 5.7134C4.62289 5.6334 4.58303 5.53451 4.58331 5.41674C4.58331 5.29868 4.62331 5.19965 4.70331 5.11965C4.78331 5.03965 4.8822 4.99979 4.99997 5.00007C5.11803 5.00007 5.21706 5.04007 5.29706 5.12007C5.37706 5.20007 5.41692 5.29896 5.41664 5.41674C5.41664 5.53479 5.37664 5.63382 5.29664 5.71382C5.21664 5.79382 5.11775 5.83368 4.99997 5.8334ZM6.66664 5.8334C6.54859 5.8334 6.44956 5.7934 6.36956 5.7134C6.28956 5.6334 6.2497 5.53451 6.24997 5.41674C6.24997 5.29868 6.28997 5.19965 6.36997 5.11965C6.44997 5.03965 6.54886 4.99979 6.66664 5.00007C6.7847 5.00007 6.88372 5.04007 6.96372 5.12007C7.04372 5.20007 7.08359 5.29896 7.08331 5.41674C7.08331 5.53479 7.04331 5.63382 6.96331 5.71382C6.88331 5.79382 6.78442 5.83368 6.66664 5.8334ZM2.0833 9.16674C1.85414 9.16674 1.65789 9.08507 1.49455 8.92174C1.33122 8.75841 1.24969 8.56229 1.24997 8.33341V2.50007C1.24997 2.2709 1.33164 2.07465 1.49497 1.91131C1.6583 1.74798 1.85441 1.66645 2.0833 1.66673H2.49997V1.23965C2.49997 1.12159 2.53997 1.02437 2.61997 0.94798C2.69997 0.871591 2.79886 0.833397 2.91664 0.833397C3.03469 0.833397 3.13372 0.873397 3.21372 0.953397C3.29372 1.0334 3.33358 1.13229 3.3333 1.25006V1.66673H6.66664V1.23965C6.66664 1.12159 6.70664 1.02437 6.78664 0.94798C6.86664 0.871591 6.96553 0.833397 7.08331 0.833397C7.20136 0.833397 7.30039 0.873397 7.38039 0.953397C7.46039 1.0334 7.50025 1.13229 7.49998 1.25006V1.66673H7.91664C8.14581 1.66673 8.34206 1.7484 8.50539 1.91173C8.66873 2.07506 8.75025 2.27118 8.74998 2.50007V8.33341C8.74998 8.56257 8.66831 8.75882 8.50498 8.92216C8.34164 9.08549 8.14553 9.16702 7.91664 9.16674H2.0833ZM2.0833 8.33341H7.91664V4.16673H2.0833V8.33341ZM2.0833 3.3334H7.91664V2.50007H2.0833V3.3334Z" fill="#2196F3"/>
</g>
<defs>
<clipPath id="clip0_1_5789">
<rect width="9.6233" height="9.6233" fill="white" transform="scale(1.03915)"/>
</clipPath>
</defs>
</svg>
