<svg width="11" height="11" viewBox="0 0 11 11" fill="none" xmlns="http://www.w3.org/2000/svg">
<g clip-path="url(#clip0_1_5765)">
<path d="M3.90202 7.19234L3.46257 8.9243C3.43594 9.03888 3.37823 9.13143 3.28945 9.20194C3.20067 9.27245 3.09414 9.30771 2.96985 9.30771C2.80117 9.30771 2.66356 9.24161 2.55703 9.1094C2.45049 8.97718 2.41942 8.83175 2.46381 8.6731L2.83668 7.19234H1.38515C1.20759 7.19234 1.06555 7.12394 0.959014 6.98715C0.85248 6.85035 0.821408 6.6984 0.865797 6.53128C0.89243 6.40789 0.954575 6.31093 1.05223 6.24042C1.14989 6.16991 1.26086 6.13465 1.38515 6.13465H3.10302L3.63569 4.01928H2.18416C2.0066 4.01928 1.86456 3.95088 1.75802 3.81408C1.65149 3.67729 1.62041 3.52534 1.6648 3.35822C1.69144 3.23482 1.75358 3.13787 1.85124 3.06736C1.9489 2.99684 2.05987 2.96159 2.18416 2.96159H3.90202L4.34148 1.22962C4.36811 1.11504 4.42582 1.02249 4.5146 0.951982C4.60337 0.881469 4.70991 0.846213 4.8342 0.846213C5.00288 0.846213 5.14048 0.912319 5.24702 1.04453C5.35355 1.17674 5.38463 1.32217 5.34024 1.48083L4.96737 2.96159H7.09805L7.53751 1.22962C7.56414 1.11504 7.62184 1.02249 7.71062 0.951982C7.7994 0.881469 7.90594 0.846213 8.03023 0.846213C8.19891 0.846213 8.33651 0.912319 8.44305 1.04453C8.54958 1.17674 8.58065 1.32217 8.53626 1.48083L8.16339 2.96159H9.61492C9.79248 2.96159 9.93453 3.02981 10.0411 3.16625C10.1476 3.30269 10.1787 3.45482 10.1343 3.62264C10.1076 3.74604 10.0455 3.84299 9.94784 3.91351C9.85019 3.98402 9.73921 4.01928 9.61492 4.01928H7.89706L7.36439 6.13465H8.81592C8.99347 6.13465 9.13552 6.20305 9.24205 6.33984C9.34859 6.47663 9.37966 6.62859 9.33527 6.7957C9.30864 6.9191 9.24649 7.01606 9.14884 7.08657C9.05118 7.15708 8.94021 7.19234 8.81592 7.19234H7.09805L6.6586 8.9243C6.63196 9.03888 6.57426 9.13143 6.48548 9.20194C6.3967 9.27245 6.29017 9.30771 6.16588 9.30771C5.9972 9.30771 5.85959 9.24161 5.75306 9.1094C5.64652 8.97718 5.61545 8.83175 5.65984 8.6731L6.03271 7.19234H3.90202ZM4.16836 6.13465H6.29904L6.83172 4.01928H4.70103L4.16836 6.13465Z" fill="#2196F3"/>
</g>
<defs>
<clipPath id="clip0_1_5765">
<rect width="10.4252" height="10.4252" fill="white" transform="scale(1.05513)"/>
</clipPath>
</defs>
</svg>
