<svg width="18" height="18" viewBox="0 0 18 18" fill="none" xmlns="http://www.w3.org/2000/svg">
<path d="M8.52683 13.4959L8.52696 13.4958L12.202 9.82081L12.3727 9.6501H12.1313H3.75C3.56274 9.6501 3.41032 9.58774 3.28596 9.46339C3.16162 9.33904 3.09956 9.18695 3.1 9.00033V9.0001C3.1 8.81283 3.16236 8.66041 3.28671 8.53606C3.41106 8.41171 3.56315 8.34966 3.74977 8.3501H3.75H12.1313H12.3727L12.202 8.17939L8.52696 4.50439C8.41084 4.38826 8.35366 4.24078 8.35896 4.05292C8.36431 3.86347 8.42746 3.71364 8.54559 3.59594L8.54571 3.59581C8.66263 3.47889 8.81132 3.41885 9 3.41885C9.18869 3.41885 9.33738 3.47889 9.45429 3.59581L14.4043 8.54581L14.404 8.5461L14.411 8.55192C14.4715 8.60236 14.5142 8.66492 14.5399 8.74162C14.5679 8.82518 14.5817 8.91102 14.5813 8.9996V9.0001C14.5813 9.0896 14.5674 9.17198 14.5405 9.24795C14.5152 9.31937 14.4709 9.38818 14.4045 9.45415L14.4043 9.45439L9.45429 14.4044C9.33738 14.5213 9.18869 14.5813 9 14.5813C8.81132 14.5813 8.66263 14.5213 8.54571 14.4044C8.42797 14.2866 8.36476 14.1367 8.35896 13.947C8.35322 13.7594 8.41032 13.612 8.52683 13.4959Z" fill="#2196F3" stroke="#D3EAFD" stroke-width="0.2"/>
</svg>
