<svg width="8" height="10" viewBox="0 0 8 10" fill="none" xmlns="http://www.w3.org/2000/svg">
<path d="M6.75555 3.83546H3.94526V0.393315C3.94526 0.327044 3.91883 0.262727 3.87029 0.210851C3.82175 0.158974 3.75396 0.122597 3.67797 0.107652C3.60197 0.0927062 3.52226 0.100073 3.45183 0.128551C3.38139 0.157029 3.32439 0.204939 3.29011 0.264469L0.134698 5.74335C0.109139 5.78803 0.0973586 5.83749 0.100462 5.88709C0.103566 5.9367 0.121452 5.98482 0.152442 6.02694C0.183431 6.06906 0.226509 6.1038 0.277633 6.12791C0.328756 6.15201 0.386249 6.16468 0.444718 6.16474H3.25501V9.60772C3.25517 9.67373 3.28155 9.73776 3.32986 9.78945C3.37818 9.84114 3.44561 9.87747 3.52125 9.89256C3.54713 9.89757 3.57359 9.9001 3.60013 9.9001C3.6647 9.90007 3.72797 9.88465 3.78274 9.85559C3.83751 9.82654 3.88158 9.78501 3.90995 9.73573L7.06537 4.25685C7.09087 4.21218 7.1026 4.16275 7.09948 4.11317C7.09636 4.0636 7.07849 4.01551 7.04753 3.97341C7.01657 3.93131 6.97355 3.89657 6.92248 3.87244C6.87142 3.84831 6.81398 3.83559 6.75555 3.83546ZM3.94526 8.34071V5.87136C3.9452 5.79362 3.90882 5.71909 3.8441 5.66414C3.77938 5.60918 3.69163 5.57831 3.60013 5.57831H0.996915L3.25481 1.65966V4.12884C3.25484 4.16735 3.26379 4.20547 3.28116 4.24104C3.29853 4.2766 3.32397 4.30891 3.35604 4.33612C3.3881 4.36334 3.42616 4.38491 3.46804 4.39963C3.50993 4.41434 3.55481 4.42191 3.60013 4.42189H6.20335L3.94526 8.34071Z" fill="#2196F3" stroke="#2196F3" stroke-width="0.2"/>
</svg>
