<svg width="156" height="34" viewBox="0 0 156 34" fill="none" xmlns="http://www.w3.org/2000/svg">
<path d="M34.3208 0C35.9385 2.83329 37.5562 5.66659 39.1738 8.47809C35.9385 8.49988 32.6813 8.49988 29.4459 8.52168C28.965 8.52168 28.506 8.49988 28.025 8.49988C25.2488 8.47809 22.4506 8.47809 19.6743 8.47809C20.7455 6.64734 21.8167 4.8384 22.866 3.00765C23.4343 2.0269 23.959 1.00255 24.4836 0C27.7627 0 31.0418 0 34.3208 0Z" fill="#019DD7"/>
<path d="M24.4838 0C23.9373 1.00255 23.4345 2.0051 22.8661 3.00765C21.8168 4.83839 20.7456 6.64734 19.6745 8.47809C19.6308 8.52168 19.5652 8.54347 19.4996 8.54347C16.2861 8.52168 13.0726 8.49988 9.85916 8.49988C10.4931 7.32298 11.1271 6.14607 11.7829 4.99096C12.7229 3.31277 13.6847 1.65639 14.6466 0C17.9257 0 21.2047 0 24.4838 0Z" fill="#02BAF0"/>
<path d="M0 25.0651C0.218604 24.7817 0.459069 24.5202 0.633952 24.2369C1.96744 21.9484 3.30092 19.66 4.63441 17.3498C4.65627 17.2844 4.74371 17.2626 4.78743 17.219C4.96231 17.328 5.18092 17.3934 5.26836 17.5459C5.74929 18.3088 6.20836 19.0716 6.66742 19.8344C7.58556 21.4254 8.48184 23.0164 9.39998 24.5856C9.53114 24.7817 9.81532 24.8907 10.0339 25.0433C9.85904 25.4138 9.68416 25.8061 9.48742 26.1766C8.26324 28.3343 7.03905 30.4919 5.81487 32.6278C5.61813 32.9983 5.37766 33.3252 5.07161 33.7829C4.21906 32.3445 3.41022 30.9714 2.62325 29.6201C1.88 28.356 1.13674 27.0702 0.393487 25.8061C0.306046 25.6535 0.131162 25.5663 0 25.4574C0 25.3484 0 25.2176 0 25.0651Z" fill="#CDEAF2"/>
<path d="M155.012 10.702C154.859 10.8981 154.706 11.0943 154.509 11.3558C154.334 11.1597 154.181 10.9853 153.984 10.7674C153.919 11.1161 153.853 11.4212 153.744 11.9007C153.175 11.2468 153.591 10.593 153.307 9.98276C153.132 10.0046 152.891 10.0046 152.629 10.0481C152.607 10.6366 152.563 11.1815 152.542 11.7481C151.951 11.3122 152.214 10.7456 152.082 10.2007C151.929 10.0917 151.711 9.96096 151.492 9.8302C151.514 9.78661 151.536 9.72122 151.536 9.67764C152.301 9.67764 153.044 9.67764 153.897 9.67764C154.05 9.89558 154.247 10.1789 154.443 10.4622C154.924 10.3533 154.771 9.50328 155.449 9.65584C155.515 10.2225 155.58 10.811 155.646 11.3776C155.646 11.5302 155.646 11.6609 155.646 11.8135C155.493 11.7699 155.318 11.7481 155.099 11.7045C155.121 11.3994 155.121 11.0943 155.143 10.811C155.143 10.7456 155.143 10.6802 155.121 10.6148C155.099 10.593 155.055 10.6584 155.012 10.702Z" fill="#273887"/>
<path d="M24.4839 33.9999C24.4839 33.9345 24.4839 33.8691 24.4839 33.8037C24.5494 33.7819 24.6369 33.7601 24.7025 33.7383C27.9159 33.7601 31.1076 33.7601 34.321 33.7819C34.321 33.8473 34.321 33.9127 34.321 33.9999C31.042 33.9999 27.7629 33.9999 24.4839 33.9999Z" fill="#CDEAF2"/>
<path d="M155.646 11.333C155.581 10.7664 155.515 10.1779 155.449 9.61126C155.515 9.52408 155.581 9.4587 155.646 9.37152C155.646 10.0254 155.646 10.6792 155.646 11.333Z" fill="#0D6EAF"/>
<path d="M53.2956 23.3863C53.2956 26.2196 53.2956 28.8132 53.2956 31.4939C52.0933 31.4939 50.9347 31.4939 49.7105 31.4939C49.6887 31.2978 49.6231 31.058 49.6231 30.8183C49.6231 26.2414 49.5575 21.6646 49.645 17.1095C49.7105 13.5134 51.5468 10.0698 55.6784 9.0455C59.3073 8.15192 62.5863 8.78396 65.0566 11.7916C68.4886 15.9762 67.1989 23.844 60.6407 25.3696C58.2361 25.9363 55.9408 25.5876 53.9733 23.953C53.8203 23.8222 53.6454 23.6915 53.2956 23.3863ZM63.0454 17.1749C63.0235 16.848 63.0017 16.521 62.958 16.1941C62.6738 13.9493 61.0342 12.3583 58.564 12.0749C56.7933 11.8788 54.5636 12.7724 53.6673 14.9518C53.2519 15.9544 53.2082 17.0005 53.3175 18.0467C53.711 21.3594 57.2305 23.2774 60.2473 21.8389C62.2147 20.9017 62.9798 19.2236 63.0454 17.1749Z" fill="#223484"/>
<path d="M111.925 25.1502C110.964 25.2592 110.111 25.4117 109.237 25.4335C107.029 25.4771 104.799 25.5643 102.591 25.4553C101.52 25.4117 100.449 25.0848 99.4431 24.6707C97.2789 23.7989 96.6012 22.2079 96.7324 19.9631C96.9291 16.7375 98.8747 15.6042 102.001 15.2773C103.793 15.0811 105.63 15.2337 107.444 15.2337C107.684 15.2337 107.947 15.2337 108.187 15.2337C108.275 13.5119 107.51 12.3568 105.914 11.9863C103.903 11.5286 101.87 11.5068 99.924 12.3786C99.6617 12.4876 99.3994 12.6183 99.137 12.7273C97.738 11.6594 97.8473 10.0902 99.4212 9.37094C100.143 9.04402 100.951 8.84787 101.717 8.78249C103.575 8.60813 105.411 8.65172 107.247 9.153C110.264 9.9594 111.925 12.0517 111.947 15.1247C111.969 18.2413 111.947 21.358 111.947 24.4964C111.969 24.6707 111.947 24.8451 111.925 25.1502ZM108.318 18.0452C107.619 17.958 106.985 17.8272 106.329 17.7836C104.886 17.6965 103.422 17.6093 102.023 18.0888C100.951 18.4593 100.405 19.3093 100.427 20.4208C100.449 21.4887 100.973 22.2733 102.066 22.5785C104.121 23.1233 106.198 22.9926 108.297 22.622C108.318 21.0964 108.318 19.658 108.318 18.0452Z" fill="#223484"/>
<path d="M86.8296 17.1734C86.9826 21.5323 83.4412 25.5861 78.0854 25.6297C73.0794 25.6733 69.232 21.9246 69.2757 17.108C69.2975 12.2696 73.0575 8.7171 78.0854 8.7171C83.2445 8.6953 87.0045 12.6837 86.8296 17.1734ZM78.0417 11.9645C75.1998 11.9645 73.1012 14.1875 73.1012 17.1952C73.1012 20.0939 75.2436 22.3605 77.998 22.3605C80.9054 22.3605 83.004 20.2246 82.9822 17.1734C82.9822 13.5555 80.4682 11.9427 78.0417 11.9645Z" fill="#223484"/>
<path d="M149.11 13.0986C147.055 11.7909 144.76 11.3986 142.355 11.573C141.808 11.6165 141.262 11.7255 140.759 11.9217C139.95 12.205 139.579 12.7499 139.601 13.4691C139.622 14.2319 140.081 14.7114 140.759 14.8639C141.918 15.1255 143.098 15.2998 144.279 15.496C145.394 15.6921 146.487 15.8883 147.601 16.1062C147.886 16.1716 148.148 16.2806 148.432 16.3895C151.427 17.719 152.083 21.4677 149.744 23.7561C148.826 24.6497 147.711 25.1292 146.465 25.3471C142.88 26.001 139.448 25.4997 136.168 23.9523C136.015 23.8869 135.862 23.7561 135.644 23.6036C136.081 22.7972 136.518 22.0125 136.912 21.2933C138.42 21.7074 139.841 22.2087 141.327 22.5138C142.792 22.8189 144.301 22.8407 145.765 22.4266C146.246 22.2741 146.793 21.969 147.077 21.5767C147.689 20.6831 147.142 19.5498 145.94 19.2446C144.934 18.9831 143.863 18.8741 142.814 18.7434C141.415 18.5472 139.994 18.46 138.661 17.8716C137.174 17.2177 136.147 16.1498 135.95 14.4716C135.753 12.5973 136.3 11.0499 137.939 9.96015C138.988 9.26273 140.191 8.93581 141.415 8.80504C143.448 8.60889 145.481 8.65248 147.492 9.17555C148.017 9.30632 148.541 9.50247 149 9.764C150.618 10.6576 150.662 11.9435 149.11 13.0986Z" fill="#223484"/>
<path d="M93.65 25.1501C92.404 25.1501 91.2891 25.1501 90.0868 25.1501C90.0649 24.8232 90.0212 24.4963 90.0212 24.1912C90.0212 17.3912 90.0212 10.6131 90.0212 3.81322C90.0212 2.13504 90.5896 1.59018 92.2728 1.72094C92.7319 1.74274 93.1909 1.8953 93.65 1.98248C93.65 9.74135 93.65 17.3912 93.65 25.1501Z" fill="#273887"/>
<path d="M43.9612 17.0001C43.6989 17.5014 43.4585 18.0245 43.1743 18.5257C41.7533 20.9449 40.3324 23.3423 38.9115 25.7615C38.5836 25.6744 38.2557 25.5436 37.9278 25.5218C35.1078 25.5 32.3096 25.5 29.4896 25.5C29.4896 25.4128 29.4897 25.3256 29.4678 25.2385C29.599 24.9769 29.7083 24.7154 29.8394 24.4757C31.2822 21.9911 32.7031 19.5065 34.1459 17.0001C37.4468 17.0001 40.704 17.0001 43.9612 17.0001Z" fill="#0D6EAF"/>
<path d="M43.9612 16.9997C40.704 16.9997 37.4468 16.9997 34.1678 16.9997C33.971 16.5856 33.7743 16.1497 33.5557 15.7574C32.2003 13.3382 30.8231 10.9408 29.4459 8.54341C32.6813 8.52161 35.9385 8.52161 39.1738 8.49982C40.7478 11.2023 42.3436 13.9049 43.9175 16.6074C43.9831 16.6946 43.9394 16.8689 43.9612 16.9997Z" fill="#028DC0"/>
<path d="M119.358 25.1503C118.112 25.1503 116.953 25.1503 115.729 25.1503C115.707 24.8887 115.663 24.6054 115.642 24.3439C115.642 21.3362 115.642 18.3068 115.642 15.2991C115.642 14.7542 115.642 14.2094 115.751 13.6645C116.254 10.8312 118.003 9.19662 121.085 8.78253C122.528 8.58638 123.992 8.62996 125.391 9.13124C127.206 9.76328 127.556 11.1799 126.244 12.6184C125.501 12.444 124.779 12.1607 124.036 12.0953C123.227 12.0299 122.353 12.0299 121.566 12.2261C120.057 12.6402 119.533 13.8607 119.38 15.2991C119.314 15.9094 119.358 16.5414 119.358 17.1516C119.358 19.4401 119.358 21.7285 119.358 24.0169C119.358 24.3874 119.358 24.7362 119.358 25.1503Z" fill="#223484"/>
<path d="M29.5117 25.4982C32.3317 25.4982 35.1517 25.4982 37.9498 25.52C38.2777 25.52 38.6056 25.6726 38.9335 25.7598C37.5782 28.1354 36.2228 30.511 34.8893 32.8866C34.7145 33.1917 34.5177 33.4968 34.3428 33.8237C31.1294 33.802 27.9377 33.802 24.7243 33.7802C24.7898 33.584 24.8336 33.3661 24.9429 33.1699C25.7517 31.7751 26.5387 30.3584 27.3694 28.9636C28.047 27.7867 28.7903 26.6533 29.5117 25.4982Z" fill="#0167B2"/>
<path d="M132.693 9.4806C132.693 14.7331 132.693 19.8984 132.693 25.1509C131.512 25.1509 130.354 25.1509 129.108 25.1509C129.086 24.7586 129.064 24.4099 129.064 24.0612C129.064 19.8766 129.129 15.7139 129.042 11.5293C128.998 9.15369 130.375 8.97933 131.971 9.26266C132.168 9.28445 132.387 9.37163 132.693 9.4806Z" fill="#273887"/>
<path d="M133.13 4.20721C133.13 5.51488 132.168 6.49564 130.9 6.47384C129.654 6.45205 128.736 5.51488 128.714 4.2508C128.714 2.94312 129.676 1.96237 130.944 1.98416C132.19 2.00595 133.13 2.96492 133.13 4.20721Z" fill="#273887"/>
<path d="M155.012 10.7006C155.056 10.657 155.078 10.6135 155.122 10.5699C155.122 10.6352 155.122 10.7006 155.143 10.766C155.1 10.7442 155.056 10.7224 155.012 10.7006Z" fill="#0D6EAF"/>
<path d="M29.5115 25.4995C28.7901 26.6546 28.0468 27.788 27.3473 28.9649C26.5166 30.3597 25.7296 31.7546 24.9208 33.1712C24.8115 33.3456 24.7678 33.5635 24.7022 33.7815C24.6366 33.8033 24.5492 33.825 24.4836 33.8468C22.8222 31.0135 21.1827 28.1585 19.5213 25.3252C19.6306 25.3252 19.7618 25.3034 19.8711 25.3034C23.019 25.3034 26.1887 25.3034 29.3366 25.3034C29.3803 25.2816 29.424 25.2816 29.4896 25.2598C29.4896 25.3252 29.4896 25.4123 29.5115 25.4995Z" fill="#134A9E"/>
<path d="M10.0555 25.0629C9.83691 24.9103 9.53086 24.8231 9.42156 24.6052C8.48156 23.036 7.60715 21.445 6.68901 19.854C6.2518 19.0694 5.77087 18.3065 5.28994 17.5655C5.2025 17.413 4.96204 17.3476 4.80901 17.2386C4.89646 17.086 4.96204 16.9553 5.04948 16.8027C8.26296 16.8027 11.4546 16.8027 14.6681 16.8027C14.7555 16.8245 14.8429 16.8245 14.9304 16.8463H14.9085C14.8867 16.9771 14.8648 17.1078 14.8429 17.2386C14.5369 17.6091 14.1653 17.936 13.9248 18.3501C12.5913 20.5514 11.3234 22.818 10.0555 25.0629Z" fill="#9AD9F0"/>
<path d="M14.8214 17.2185C14.8432 17.0877 14.8651 16.9569 14.8869 16.8262C15.2804 16.848 15.6739 16.8916 16.0674 16.8916C18.8 16.9134 21.5544 16.9134 24.2869 16.9351C24.1776 17.2403 24.112 17.5672 23.959 17.8287C23.0409 19.4197 22.1009 20.9671 21.2046 22.5799C20.7237 23.4517 19.9804 24.1927 19.893 25.2607C19.7837 25.2607 19.6525 25.2825 19.5432 25.2825C17.9474 22.6017 16.3734 19.8992 14.8214 17.2185Z" fill="#1B1F64"/>
<path d="M14.6465 16.7816C11.433 16.7816 8.2414 16.7816 5.02792 16.7816C5.88047 15.2342 6.73303 13.7086 7.60744 12.1611C8.06651 11.3547 8.52558 10.5265 9.00651 9.72015C9.22512 9.34964 9.5093 9.02272 9.77163 8.67401C9.96837 8.87016 10.187 9.04452 10.34 9.28426C10.7991 10.0253 11.2363 10.7663 11.6735 11.5073C12.6572 13.2727 13.6409 15.038 14.6465 16.7816Z" fill="#80D0EE"/>
<path d="M14.6464 16.7818C13.6627 15.0382 12.6571 13.2728 11.6516 11.5293C11.2144 10.7882 10.7772 10.0254 10.3181 9.30622C10.1651 9.08827 9.94645 8.91391 9.74971 8.69597C9.77157 8.63058 9.81529 8.5652 9.83715 8.49982C13.0506 8.52161 16.2641 8.52161 19.4994 8.54341C18.7562 9.89467 17.9911 11.2459 17.2478 12.5754C16.4609 13.992 15.6957 15.4087 14.9088 16.8035C14.8213 16.8035 14.7339 16.8035 14.6464 16.7818Z" fill="#53C5ED"/>
<path d="M24.2867 16.9571C24.4616 17.1097 24.7021 17.2187 24.8114 17.393C26.3416 20.0084 27.85 22.6455 29.3583 25.2609C26.2104 25.2609 23.0407 25.2609 19.8928 25.2609C19.9802 24.1929 20.7235 23.4519 21.2044 22.5801C22.1007 20.9891 23.0407 19.4199 23.9588 17.8289C24.09 17.5674 24.1774 17.2405 24.2867 16.9571Z" fill="#223484"/>
</svg>
