<svg width="11" height="11" viewBox="0 0 11 11" fill="none" xmlns="http://www.w3.org/2000/svg">
<path d="M3.90189 7.19234L3.46244 8.9243C3.43581 9.03888 3.3781 9.13143 3.28932 9.20194C3.20054 9.27245 3.09401 9.30771 2.96972 9.30771C2.80104 9.30771 2.66343 9.24161 2.5569 9.1094C2.45037 8.97718 2.41929 8.83175 2.46368 8.6731L2.83655 7.19234H1.38502C1.20747 7.19234 1.06542 7.12394 0.958885 6.98715C0.852351 6.85035 0.821279 6.6984 0.865668 6.53128C0.892302 6.40789 0.954447 6.31093 1.0521 6.24042C1.14976 6.16991 1.26073 6.13465 1.38502 6.13465H3.10289L3.63556 4.01928H2.18403C2.00647 4.01928 1.86443 3.95088 1.75789 3.81408C1.65136 3.67729 1.62029 3.52534 1.66468 3.35822C1.69131 3.23482 1.75345 3.13787 1.85111 3.06736C1.94877 2.99684 2.05974 2.96159 2.18403 2.96159H3.90189L4.34135 1.22962C4.36798 1.11504 4.42569 1.02249 4.51447 0.951982C4.60324 0.881469 4.70978 0.846213 4.83407 0.846213C5.00275 0.846213 5.14036 0.912319 5.24689 1.04453C5.35342 1.17674 5.3845 1.32217 5.34011 1.48083L4.96724 2.96159H7.09792L7.53738 1.22962C7.56401 1.11504 7.62172 1.02249 7.71049 0.951982C7.79927 0.881469 7.90581 0.846213 8.0301 0.846213C8.19878 0.846213 8.33638 0.912319 8.44292 1.04453C8.54945 1.17674 8.58052 1.32217 8.53614 1.48083L8.16327 2.96159H9.61479C9.79235 2.96159 9.9344 3.02981 10.0409 3.16625C10.1475 3.30269 10.1785 3.45482 10.1341 3.62264C10.1075 3.74604 10.0454 3.84299 9.94771 3.91351C9.85006 3.98402 9.73909 4.01928 9.61479 4.01928H7.89693L7.36426 6.13465H8.81579C8.99334 6.13465 9.13539 6.20305 9.24192 6.33984C9.34846 6.47663 9.37953 6.62859 9.33514 6.7957C9.30851 6.9191 9.24636 7.01606 9.14871 7.08657C9.05105 7.15708 8.94008 7.19234 8.81579 7.19234H7.09792L6.65847 8.9243C6.63184 9.03888 6.57413 9.13143 6.48535 9.20194C6.39657 9.27245 6.29004 9.30771 6.16575 9.30771C5.99707 9.30771 5.85946 9.24161 5.75293 9.1094C5.64639 8.97718 5.61532 8.83175 5.65971 8.6731L6.03258 7.19234H3.90189ZM4.16823 6.13465H6.29892L6.83159 4.01928H4.7009L4.16823 6.13465Z" fill="#2196F3"/>
</svg>
